<svg xmlns="http://www.w3.org/2000/svg" xmlns:xlink="http://www.w3.org/1999/xlink" width="453pt" height="794pt" viewBox="0.00 0.00 453.01 793.85">
<g id="graph0" class="graph" transform="scale(1 1) rotate(0) translate(4 789.85)">
<title>QSVMWorkflow</title>
<text text-anchor="middle" x="222.51" y="-765.65" font-family="Times,serif" font-size="18.00">Diagram 2: QSVM Workflow</text>
<!-- InputVec -->
<g id="node1" class="node">
<title>InputVec</title>
<polygon fill="palegreen" stroke="black" points="199,-756.25 40.72,-756.25 0,-692.25 158.28,-692.25 199,-756.25"/>
<text text-anchor="middle" x="99.5" y="-727.25" font-family="Times,serif" font-size="10.00">Scaled Input Vector</text>
<text text-anchor="middle" x="99.5" y="-715.25" font-family="Times,serif" font-size="10.00">x</text>
</g>
<!-- FeatureMap -->
<g id="node4" class="node">
<title>FeatureMap</title>
<path fill="lightsteelblue" stroke="black" d="M164.23,-618.75C164.23,-618.75 246.76,-618.75 246.76,-618.75 252.76,-618.75 258.76,-624.75 258.76,-630.75 258.76,-630.75 258.76,-642.75 258.76,-642.75 258.76,-648.75 252.76,-654.75 246.76,-654.75 246.76,-654.75 164.23,-654.75 164.23,-654.75 158.23,-654.75 152.23,-648.75 152.23,-642.75 152.23,-642.75 152.23,-630.75 152.23,-630.75 152.23,-624.75 158.23,-618.75 164.23,-618.75"/>
<text text-anchor="middle" x="205.5" y="-639.75" font-family="Times,serif" font-size="10.00">Quantum Feature Map</text>
<text text-anchor="middle" x="205.5" y="-627.75" font-family="Times,serif" font-size="10.00">(e.g., ZZFeatureMap)</text>
</g>
<!-- InputVec&#45;&gt;FeatureMap -->
<g id="edge1" class="edge">
<title>InputVec-&gt;FeatureMap</title>
<path fill="none" stroke="black" d="M138.37,-691.9C150.49,-682.13 163.67,-671.49 175.13,-662.25"/>
<polygon fill="black" stroke="black" points="177.12,-665.14 182.71,-656.14 172.72,-659.69 177.12,-665.14"/>
</g>
<!-- TrainLabels -->
<g id="node2" class="node">
<title>TrainLabels</title>
<polygon fill="none" stroke="black" stroke-dasharray="5,2" points="445.01,-395 313.75,-395 279.98,-331 411.25,-331 445.01,-395"/>
<text text-anchor="middle" x="362.5" y="-366" font-family="Times,serif" font-size="10.00">Training Labels</text>
<text text-anchor="middle" x="362.5" y="-354" font-family="Times,serif" font-size="10.00">y_train</text>
</g>
<!-- SVMTraining -->
<g id="node8" class="node">
<title>SVMTraining</title>
<polygon fill="lightsteelblue" stroke="black" points="372.8,-294 278.2,-294 278.2,-258 372.8,-258 372.8,-294"/>
<text text-anchor="middle" x="325.5" y="-279" font-family="Times,serif" font-size="10.00">Classical SVM</text>
<text text-anchor="middle" x="325.5" y="-267" font-family="Times,serif" font-size="10.00">Training Algorithm</text>
</g>
<!-- TrainLabels&#45;&gt;SVMTraining -->
<g id="edge6" class="edge">
<title>TrainLabels-&gt;SVMTraining</title>
<path fill="none" stroke="black" d="M348.93,-330.83C345.2,-322.27 341.19,-313.04 337.55,-304.68"/>
<polygon fill="black" stroke="black" points="340.85,-303.49 333.65,-295.72 334.43,-306.29 340.85,-303.49"/>
</g>
<!-- TestVec -->
<g id="node3" class="node">
<title>TestVec</title>
<polygon fill="palegreen" stroke="black" points="407.96,-756.25 256.1,-756.25 217.03,-692.25 368.9,-692.25 407.96,-756.25"/>
<text text-anchor="middle" x="312.5" y="-727.25" font-family="Times,serif" font-size="10.00">Scaled Test Vector</text>
<text text-anchor="middle" x="312.5" y="-715.25" font-family="Times,serif" font-size="10.00">x_test</text>
</g>
<!-- TestVec&#45;&gt;FeatureMap -->
<g id="edge8" class="edge">
<title>TestVec-&gt;FeatureMap</title>
<path fill="none" stroke="black" stroke-dasharray="5,2" d="M273.26,-691.9C261.03,-682.13 247.72,-671.49 236.16,-662.25"/>
<polygon fill="black" stroke="black" points="238.5,-659.64 228.5,-656.13 234.13,-665.11 238.5,-659.64"/>
</g>
<!-- QuantumState -->
<g id="node5" class="node">
<title>QuantumState</title>
<ellipse fill="none" stroke="black" stroke-dasharray="5,2" cx="205.5" cy="-558.63" rx="53.54" ry="22.63"/>
<text text-anchor="middle" x="205.5" y="-561.63" font-family="Times,serif" font-size="10.00">Quantum State</text>
<text text-anchor="middle" x="205.5" y="-549.63" font-family="Times,serif" font-size="10.00">|ψ(x)⟩</text>
</g>
<!-- FeatureMap&#45;&gt;QuantumState -->
<g id="edge2" class="edge">
<title>FeatureMap-&gt;QuantumState</title>
<path fill="none" stroke="black" d="M199.74,-618.48C198.93,-610.85 198.62,-601.62 198.8,-592.76"/>
<polygon fill="black" stroke="black" points="202.28,-593.14 199.25,-582.98 195.29,-592.81 202.28,-593.14"/>
</g>
<!-- FeatureMap&#45;&gt;QuantumState -->
<g id="edge9" class="edge">
<title>FeatureMap-&gt;QuantumState</title>
<path fill="none" stroke="black" stroke-dasharray="5,2" d="M211.26,-618.48C212.07,-610.85 212.38,-601.62 212.2,-592.76"/>
<polygon fill="black" stroke="black" points="215.7,-592.81 211.74,-582.98 208.71,-593.14 215.7,-592.81"/>
</g>
<!-- FidelityComp -->
<g id="node6" class="node">
<title>FidelityComp</title>
<polygon fill="lightsteelblue" stroke="black" points="256.42,-476 154.58,-476 154.58,-432 256.42,-432 256.42,-476"/>
<text text-anchor="middle" x="205.5" y="-463" font-family="Times,serif" font-size="10.00">Fidelity Computation</text>
<text text-anchor="middle" x="205.5" y="-451" font-family="Times,serif" font-size="10.00">|⟨ψ(x)|ψ(x')⟩|²</text>
<text text-anchor="middle" x="205.5" y="-439" font-family="Times,serif" font-size="10.00">(Sampler Primitive)</text>
</g>
<!-- QuantumState&#45;&gt;FidelityComp -->
<g id="edge3" class="edge">
<title>QuantumState-&gt;FidelityComp</title>
<path fill="none" stroke="black" d="M179.58,-538.8C173.43,-532.9 167.69,-525.85 164.35,-518 160.17,-508.18 160.13,-503.8 164.35,-494 165.66,-490.95 167.34,-488.02 169.27,-485.24"/>
<polygon fill="black" stroke="black" points="171.96,-487.49 175.65,-477.56 166.57,-483.01 171.96,-487.49"/>
<text text-anchor="middle" x="198.92" y="-509" font-family="Times,serif" font-size="10.00">Compute overlap</text>
<text text-anchor="middle" x="198.92" y="-497" font-family="Times,serif" font-size="10.00">with other states</text>
</g>
<!-- QuantumState&#45;&gt;FidelityComp -->
<g id="edge10" class="edge">
<title>QuantumState-&gt;FidelityComp</title>
<path fill="none" stroke="black" stroke-dasharray="5,2" d="M223.53,-537.13C227.6,-531.33 231.36,-524.74 233.5,-518 236.73,-507.83 236.77,-504.15 233.5,-494 232.63,-491.29 231.49,-488.61 230.17,-486"/>
<polygon fill="black" stroke="black" points="233.32,-484.44 225.17,-477.67 227.32,-488.04 233.32,-484.44"/>
</g>
<!-- KernelMatrix -->
<g id="node7" class="node">
<title>KernelMatrix</title>
<path fill="khaki" stroke="black" d="M261.82,-381C261.82,-383.21 236.57,-385 205.5,-385 174.42,-385 149.18,-383.21 149.18,-381 149.18,-381 149.18,-345 149.18,-345 149.18,-342.79 174.42,-341 205.5,-341 236.57,-341 261.82,-342.79 261.82,-345 261.82,-345 261.82,-381 261.82,-381"/>
<path fill="none" stroke="black" d="M261.82,-381C261.82,-378.79 236.57,-377 205.5,-377 174.42,-377 149.18,-378.79 149.18,-381"/>
<text text-anchor="middle" x="205.5" y="-366" font-family="Times,serif" font-size="10.00">Quantum Kernel Matrix</text>
<text text-anchor="middle" x="205.5" y="-354" font-family="Times,serif" font-size="10.00">K(x, x')</text>
</g>
<!-- FidelityComp&#45;&gt;KernelMatrix -->
<g id="edge4" class="edge">
<title>FidelityComp-&gt;KernelMatrix</title>
<path fill="none" stroke="black" d="M199.66,-431.91C198.75,-421.34 198.52,-408.32 198.97,-396.51"/>
<polygon fill="black" stroke="black" points="202.45,-396.95 199.55,-386.76 195.46,-396.53 202.45,-396.95"/>
</g>
<!-- FidelityComp&#45;&gt;KernelMatrix -->
<g id="edge11" class="edge">
<title>FidelityComp-&gt;KernelMatrix</title>
<path fill="none" stroke="black" stroke-dasharray="5,2" d="M211.34,-431.91C212.24,-421.34 212.47,-408.32 212.03,-396.51"/>
<polygon fill="black" stroke="black" points="215.53,-396.53 211.44,-386.76 208.55,-396.95 215.53,-396.53"/>
</g>
<!-- KernelMatrix&#45;&gt;SVMTraining -->
<g id="edge5" class="edge">
<title>KernelMatrix-&gt;SVMTraining</title>
<path fill="none" stroke="black" d="M235.78,-340.55C252.77,-328.52 274.01,-313.47 291.56,-301.04"/>
<polygon fill="black" stroke="black" points="293.51,-303.95 299.64,-295.31 289.46,-298.24 293.51,-303.95"/>
</g>
<!-- Predict -->
<g id="node10" class="node">
<title>Predict</title>
<polygon fill="lightyellow" stroke="black" points="217.5,-137 168.94,-119 217.5,-101 266.06,-119 217.5,-137"/>
<text text-anchor="middle" x="217.5" y="-116" font-family="Times,serif" font-size="10.00">Prediction</text>
</g>
<!-- KernelMatrix&#45;&gt;Predict -->
<g id="edge12" class="edge">
<title>KernelMatrix-&gt;Predict</title>
<path fill="none" stroke="black" stroke-dasharray="5,2" d="M205.51,-340.63C205.62,-314.17 206.14,-267.73 208.24,-228 209.68,-200.85 212.45,-169.96 214.58,-148.18"/>
<polygon fill="black" stroke="black" points="218.05,-148.62 215.57,-138.32 211.09,-147.92 218.05,-148.62"/>
<text text-anchor="middle" x="260.87" y="-231" font-family="Times,serif" font-size="10.00">Support Vectors &amp; Kernel</text>
</g>
<!-- TrainedModel -->
<g id="node9" class="node">
<title>TrainedModel</title>
<ellipse fill="lightblue" stroke="black" cx="310.5" cy="-192" rx="63.07" ry="18"/>
<text text-anchor="middle" x="310.5" y="-189" font-family="Times,serif" font-size="10.00">Trained QSVC Model</text>
</g>
<!-- SVMTraining&#45;&gt;TrainedModel -->
<g id="edge7" class="edge">
<title>SVMTraining-&gt;TrainedModel</title>
<path fill="none" stroke="black" d="M322.32,-257.61C320.41,-247.17 317.93,-233.64 315.74,-221.66"/>
<polygon fill="black" stroke="black" points="319.19,-221.06 313.95,-211.85 312.3,-222.32 319.19,-221.06"/>
</g>
<!-- TrainedModel&#45;&gt;Predict -->
<g id="edge13" class="edge">
<title>TrainedModel-&gt;Predict</title>
<path fill="none" stroke="black" d="M289.39,-174.89C275.24,-164.08 256.55,-149.82 241.78,-138.54"/>
<polygon fill="black" stroke="black" points="244,-135.83 233.93,-132.54 239.75,-141.39 244,-135.83"/>
</g>
<!-- Output -->
<g id="node11" class="node">
<title>Output</title>
<polygon fill="lightcoral" stroke="black" points="299.43,-64 169.09,-64 135.57,0 265.9,0 299.43,-64"/>
<text text-anchor="middle" x="217.5" y="-35" font-family="Times,serif" font-size="10.00">Predicted Label</text>
<text text-anchor="middle" x="217.5" y="-23" font-family="Times,serif" font-size="10.00">y_pred</text>
</g>
<!-- Predict&#45;&gt;Output -->
<g id="edge14" class="edge">
<title>Predict-&gt;Output</title>
<path fill="none" stroke="black" d="M217.5,-100.8C217.5,-93.43 217.5,-84.47 217.5,-75.51"/>
<polygon fill="black" stroke="black" points="221,-75.79 217.5,-65.79 214,-75.79 221,-75.79"/>
</g>
</g>
</svg>