<svg xmlns="http://www.w3.org/2000/svg" xmlns:xlink="http://www.w3.org/1999/xlink" width="458pt" height="442pt" viewBox="0.00 0.00 457.92 442.00">
<g id="graph0" class="graph" transform="scale(1 1) rotate(0) translate(4 438)">
<title>OverallWorkflow</title>
<!-- Data -->
<g id="node1" class="node">
<title>Data</title>
<polygon fill="lightblue" stroke="black" points="178.85,-434 51.51,-434 51.51,-398 178.85,-398 178.85,-434"/>
<text text-anchor="middle" x="115.18" y="-413" font-family="Times,serif" font-size="10.00">Load Heart Disease Dataset</text>
</g>
<!-- Preprocess -->
<g id="node2" class="node">
<title>Preprocess</title>
<polygon fill="lightblue" stroke="black" points="168.99,-361 61.36,-361 61.36,-325 168.99,-325 168.99,-361"/>
<text text-anchor="middle" x="115.18" y="-346" font-family="Times,serif" font-size="10.00">Preprocess Data</text>
<text text-anchor="middle" x="115.18" y="-334" font-family="Times,serif" font-size="10.00">(Clean, Encode, Scale)</text>
</g>
<!-- Data&#45;&gt;Preprocess -->
<g id="edge1" class="edge">
<title>Data-&gt;Preprocess</title>
<path fill="none" stroke="black" d="M115.18,-397.81C115.18,-390.23 115.18,-381.1 115.18,-372.54"/>
<polygon fill="black" stroke="black" points="118.68,-372.54 115.18,-362.54 111.68,-372.54 118.68,-372.54"/>
</g>
<!-- EDA -->
<g id="node3" class="node">
<title>EDA</title>
<polygon fill="lightblue" stroke="black" points="152.35,-277 0,-277 0,-241 152.35,-241 152.35,-277"/>
<text text-anchor="middle" x="76.18" y="-256" font-family="Times,serif" font-size="10.00">Exploratory Data Analysis (EDA)</text>
</g>
<!-- Preprocess&#45;&gt;EDA -->
<g id="edge2" class="edge">
<title>Preprocess-&gt;EDA</title>
<path fill="none" stroke="black" stroke-dasharray="5,2" d="M106.91,-324.61C101.79,-313.85 95.1,-299.79 89.27,-287.54"/>
<polygon fill="black" stroke="black" points="92.54,-286.26 85.09,-278.73 86.22,-289.27 92.54,-286.26"/>
<text text-anchor="middle" x="125.36" y="-298" font-family="Times,serif" font-size="10.00">Original Data</text>
</g>
<!-- Split -->
<g id="node4" class="node">
<title>Split</title>
<polygon fill="lightblue" stroke="black" points="249.7,-277 170.65,-277 170.65,-241 249.7,-241 249.7,-277"/>
<text text-anchor="middle" x="210.18" y="-256" font-family="Times,serif" font-size="10.00">Train/Test Split</text>
</g>
<!-- Preprocess&#45;&gt;Split -->
<g id="edge3" class="edge">
<title>Preprocess-&gt;Split</title>
<path fill="none" stroke="black" d="M136.22,-324.68C142.95,-319.08 150.41,-312.82 157.18,-307 165.53,-299.82 174.53,-291.9 182.7,-284.65"/>
<polygon fill="black" stroke="black" points="184.9,-287.38 190.04,-278.12 180.24,-282.16 184.9,-287.38"/>
<text text-anchor="middle" x="194.39" y="-298" font-family="Times,serif" font-size="10.00">Scaled Data</text>
</g>
<!-- TrainClassical -->
<g id="node5" class="node">
<title>TrainClassical</title>
<polygon fill="lightblue" stroke="black" points="132.48,-193 47.87,-193 47.87,-157 132.48,-157 132.48,-193"/>
<text text-anchor="middle" x="90.18" y="-178" font-family="Times,serif" font-size="10.00">Train &amp; Tune</text>
<text text-anchor="middle" x="90.18" y="-166" font-family="Times,serif" font-size="10.00">Classical Models</text>
</g>
<!-- Split&#45;&gt;TrainClassical -->
<g id="edge4" class="edge">
<title>Split-&gt;TrainClassical</title>
<path fill="none" stroke="black" d="M184.73,-240.61C167.31,-228.71 143.99,-212.77 124.87,-199.71"/>
<polygon fill="black" stroke="black" points="127.07,-196.97 116.84,-194.22 123.12,-202.75 127.07,-196.97"/>
<text text-anchor="middle" x="175.83" y="-214" font-family="Times,serif" font-size="10.00">Train Set</text>
</g>
<!-- TrainQuantum -->
<g id="node6" class="node">
<title>TrainQuantum</title>
<polygon fill="lightblue" stroke="black" points="270.12,-193 150.24,-193 150.24,-157 270.12,-157 270.12,-193"/>
<text text-anchor="middle" x="210.18" y="-178" font-family="Times,serif" font-size="10.00">Train &amp; Evaluate</text>
<text text-anchor="middle" x="210.18" y="-166" font-family="Times,serif" font-size="10.00">Quantum Model (QSVM)</text>
</g>
<!-- Split&#45;&gt;TrainQuantum -->
<g id="edge5" class="edge">
<title>Split-&gt;TrainQuantum</title>
<path fill="none" stroke="black" d="M210.18,-240.61C210.18,-230.17 210.18,-216.64 210.18,-204.66"/>
<polygon fill="black" stroke="black" points="213.68,-204.88 210.18,-194.88 206.68,-204.88 213.68,-204.88"/>
<text text-anchor="middle" x="228.64" y="-214" font-family="Times,serif" font-size="10.00">Train Set</text>
</g>
<!-- TrainBaseline -->
<g id="node7" class="node">
<title>TrainBaseline</title>
<polygon fill="lightblue" stroke="black" points="401.78,-193 288.57,-193 288.57,-157 401.78,-157 401.78,-193"/>
<text text-anchor="middle" x="345.18" y="-178" font-family="Times,serif" font-size="10.00">Train &amp; Evaluate</text>
<text text-anchor="middle" x="345.18" y="-166" font-family="Times,serif" font-size="10.00">Classical SVM Baseline</text>
</g>
<!-- Split&#45;&gt;TrainBaseline -->
<g id="edge6" class="edge">
<title>Split-&gt;TrainBaseline</title>
<path fill="none" stroke="black" d="M238.81,-240.61C258.67,-228.54 285.36,-212.34 307.03,-199.17"/>
<polygon fill="black" stroke="black" points="308.56,-202.33 315.29,-194.15 304.93,-196.35 308.56,-202.33"/>
<text text-anchor="middle" x="304.23" y="-214" font-family="Times,serif" font-size="10.00">Train Set</text>
</g>
<!-- Compare -->
<g id="node8" class="node">
<title>Compare</title>
<polygon fill="lightblue" stroke="black" points="277.6,-109 142.75,-109 142.75,-73 277.6,-73 277.6,-109"/>
<text text-anchor="middle" x="210.18" y="-88" font-family="Times,serif" font-size="10.00">Compare Model Performance</text>
</g>
<!-- Split&#45;&gt;Compare -->
<g id="edge7" class="edge">
<title>Split-&gt;Compare</title>
<path fill="none" stroke="black" stroke-dasharray="5,2" d="M250,-254.33C318.33,-246.23 447.24,-222.07 411.18,-157 398.73,-134.55 339.8,-117.22 288.94,-106.12"/>
<polygon fill="black" stroke="black" points="289.89,-102.74 279.38,-104.09 288.44,-109.59 289.89,-102.74"/>
<text text-anchor="middle" x="433.67" y="-172" font-family="Times,serif" font-size="10.00">Test Set</text>
</g>
<!-- TrainClassical&#45;&gt;Compare -->
<g id="edge8" class="edge">
<title>TrainClassical-&gt;Compare</title>
<path fill="none" stroke="black" d="M105,-156.95C113.94,-147.34 125.93,-135.59 138.12,-127 144.39,-122.59 151.29,-118.45 158.27,-114.68"/>
<polygon fill="black" stroke="black" points="159.85,-117.81 167.14,-110.12 156.65,-111.58 159.85,-117.81"/>
<text text-anchor="middle" x="172.15" y="-130" font-family="Times,serif" font-size="10.00">Classical Results</text>
</g>
<!-- TrainQuantum&#45;&gt;Compare -->
<g id="edge9" class="edge">
<title>TrainQuantum-&gt;Compare</title>
<path fill="none" stroke="black" d="M210.18,-156.61C210.18,-146.17 210.18,-132.64 210.18,-120.66"/>
<polygon fill="black" stroke="black" points="213.68,-120.88 210.18,-110.88 206.68,-120.88 213.68,-120.88"/>
<text text-anchor="middle" x="240.6" y="-130" font-family="Times,serif" font-size="10.00">QSVM Results</text>
</g>
<!-- TrainBaseline&#45;&gt;Compare -->
<g id="edge10" class="edge">
<title>TrainBaseline-&gt;Compare</title>
<path fill="none" stroke="black" d="M320.61,-156.65C307.36,-147.51 290.59,-136.3 275.18,-127 268.31,-122.86 260.92,-118.65 253.67,-114.66"/>
<polygon fill="black" stroke="black" points="255.72,-111.79 245.26,-110.09 252.38,-117.94 255.72,-111.79"/>
<text text-anchor="middle" x="326.01" y="-130" font-family="Times,serif" font-size="10.00">Baseline Results</text>
</g>
<!-- Conclusion -->
<g id="node9" class="node">
<title>Conclusion</title>
<polygon fill="lightblue" stroke="black" points="240.95,-36 179.4,-36 179.4,0 240.95,0 240.95,-36"/>
<text text-anchor="middle" x="210.18" y="-15" font-family="Times,serif" font-size="10.00">Conclusion</text>
</g>
<!-- Compare&#45;&gt;Conclusion -->
<g id="edge11" class="edge">
<title>Compare-&gt;Conclusion</title>
<path fill="none" stroke="black" d="M210.18,-72.81C210.18,-65.23 210.18,-56.1 210.18,-47.54"/>
<polygon fill="black" stroke="black" points="213.68,-47.54 210.18,-37.54 206.68,-47.54 213.68,-47.54"/>
</g>
</g>
</svg>