<svg xmlns="http://www.w3.org/2000/svg" xmlns:xlink="http://www.w3.org/1999/xlink" width="680pt" height="516pt" viewBox="0.00 0.00 680.22 516.00">
<g id="graph0" class="graph" transform="scale(1 1) rotate(0) translate(4 512)">
<title>ClassicalMLPipeline</title>
<text text-anchor="middle" x="336.11" y="-487.8" font-family="Times,serif" font-size="18.00">Flowchart 2: Classical ML Pipeline</text>
<g id="clust1" class="cluster">
<title>cluster_Loop</title>
<polygon fill="none" stroke="black" stroke-dasharray="5,2" points="8,-65 8,-470.4 562,-470.4 562,-65 8,-65"/>
<text text-anchor="middle" x="285" y="-455.6" font-family="Times,serif" font-size="12.00">For Each Classical Model</text>
</g>
<!-- TrainInput -->
<g id="node1" class="node">
<title>TrainInput</title>
<polygon fill="palegreen" stroke="black" points="225.68,-440 59.16,-440 16.32,-376 182.84,-376 225.68,-440"/>
<text text-anchor="middle" x="121" y="-411" font-family="Times,serif" font-size="10.00">Scaled Training Data</text>
<text text-anchor="middle" x="121" y="-399" font-family="Times,serif" font-size="10.00">(X_train, y_train)</text>
</g>
<!-- TuneParams -->
<g id="node4" class="node">
<title>TuneParams</title>
<polygon fill="lightyellow" stroke="black" points="513.93,-339 312.07,-339 312.07,-303 513.93,-303 513.93,-339"/>
<text text-anchor="middle" x="413" y="-324" font-family="Times,serif" font-size="10.00">Tune Hyperparameters</text>
<text text-anchor="middle" x="413" y="-312" font-family="Times,serif" font-size="10.00">(RandomizedSearchCV on Train Data, CV=5)</text>
</g>
<!-- TrainInput&#45;&gt;TuneParams -->
<g id="edge2" class="edge">
<title>TrainInput-&gt;TuneParams</title>
<path fill="none" stroke="black" stroke-dasharray="5,2" d="M121.26,-375.69C122.82,-368.68 125.75,-361.88 131,-357 155.48,-334.26 233.01,-325.79 300.6,-322.85"/>
<polygon fill="black" stroke="black" points="300.41,-326.36 310.27,-322.47 300.14,-319.36 300.41,-326.36"/>
</g>
<!-- TrainBest -->
<g id="node5" class="node">
<title>TrainBest</title>
<polygon fill="lightgrey" stroke="black" points="462.66,-255 363.34,-255 363.34,-219 462.66,-219 462.66,-255"/>
<text text-anchor="middle" x="413" y="-240" font-family="Times,serif" font-size="10.00">Train Best Estimator</text>
<text text-anchor="middle" x="413" y="-228" font-family="Times,serif" font-size="10.00">(on Full Train Data)</text>
</g>
<!-- TrainInput&#45;&gt;TrainBest -->
<g id="edge4" class="edge">
<title>TrainInput-&gt;TrainBest</title>
<path fill="none" stroke="black" stroke-dasharray="5,2" d="M190.7,-387.04C205.28,-383.15 220.6,-379.27 235,-376 280.82,-365.6 292.47,-363.52 339,-357 359.34,-354.15 509.2,-354.22 523,-339 533.75,-327.15 532.02,-316.22 523,-303 510.62,-284.87 494.81,-297.84 477,-285 471.37,-280.94 472.19,-277.61 467,-273 462.62,-269.11 457.77,-265.35 452.83,-261.83"/>
<polygon fill="black" stroke="black" points="454.8,-258.94 444.56,-256.22 450.87,-264.73 454.8,-258.94"/>
</g>
<!-- TestInput -->
<g id="node2" class="node">
<title>TestInput</title>
<polygon fill="palegreen" stroke="black" points="444.08,-440 284.88,-440 243.92,-376 403.12,-376 444.08,-440"/>
<text text-anchor="middle" x="344" y="-411" font-family="Times,serif" font-size="10.00">Scaled Testing Data</text>
<text text-anchor="middle" x="344" y="-399" font-family="Times,serif" font-size="10.00">(X_test, y_test)</text>
</g>
<!-- PredictTest -->
<g id="node6" class="node">
<title>PredictTest</title>
<polygon fill="lightgrey" stroke="black" points="461.96,-182 364.04,-182 364.04,-146 461.96,-146 461.96,-182"/>
<text text-anchor="middle" x="413" y="-161" font-family="Times,serif" font-size="10.00">Predict on Test Data</text>
</g>
<!-- TestInput&#45;&gt;PredictTest -->
<g id="edge6" class="edge">
<title>TestInput-&gt;PredictTest</title>
<path fill="none" stroke="black" stroke-dasharray="5,2" d="M410.67,-387C461.69,-371.03 524.55,-349.62 532,-339 569.37,-285.75 497.47,-222.56 450.03,-188.9"/>
<polygon fill="black" stroke="black" points="452.07,-186.06 441.86,-183.24 448.09,-191.82 452.07,-186.06"/>
</g>
<!-- SelectModel -->
<g id="node3" class="node">
<title>SelectModel</title>
<polygon fill="lightgrey" stroke="black" points="554.04,-426 461.96,-426 461.96,-390 554.04,-390 554.04,-426"/>
<text text-anchor="middle" x="508" y="-405" font-family="Times,serif" font-size="10.00">Select Model Type</text>
</g>
<!-- SelectModel&#45;&gt;TuneParams -->
<g id="edge1" class="edge">
<title>SelectModel-&gt;TuneParams</title>
<path fill="none" stroke="black" d="M488.78,-389.8C474.96,-377.44 456.13,-360.59 440.69,-346.78"/>
<polygon fill="black" stroke="black" points="443.44,-344.54 433.65,-340.48 438.77,-349.75 443.44,-344.54"/>
</g>
<!-- TuneParams&#45;&gt;TrainBest -->
<g id="edge3" class="edge">
<title>TuneParams-&gt;TrainBest</title>
<path fill="none" stroke="black" d="M413,-302.61C413,-292.17 413,-278.64 413,-266.66"/>
<polygon fill="black" stroke="black" points="416.5,-266.88 413,-256.88 409.5,-266.88 416.5,-266.88"/>
<text text-anchor="middle" x="437.86" y="-276" font-family="Times,serif" font-size="10.00">Best Params</text>
</g>
<!-- TrainBest&#45;&gt;PredictTest -->
<g id="edge5" class="edge">
<title>TrainBest-&gt;PredictTest</title>
<path fill="none" stroke="black" d="M413,-218.81C413,-211.23 413,-202.1 413,-193.54"/>
<polygon fill="black" stroke="black" points="416.5,-193.54 413,-183.54 409.5,-193.54 416.5,-193.54"/>
</g>
<!-- Evaluate -->
<g id="node7" class="node">
<title>Evaluate</title>
<polygon fill="lightgrey" stroke="black" points="469.87,-109 356.13,-109 356.13,-73 469.87,-73 469.87,-109"/>
<text text-anchor="middle" x="413" y="-94" font-family="Times,serif" font-size="10.00">Evaluate Metrics</text>
<text text-anchor="middle" x="413" y="-82" font-family="Times,serif" font-size="10.00">(Accuracy, Report, CM)</text>
</g>
<!-- PredictTest&#45;&gt;Evaluate -->
<g id="edge7" class="edge">
<title>PredictTest-&gt;Evaluate</title>
<path fill="none" stroke="black" d="M413,-145.81C413,-138.23 413,-129.1 413,-120.54"/>
<polygon fill="black" stroke="black" points="416.5,-120.54 413,-110.54 409.5,-120.54 416.5,-120.54"/>
</g>
<!-- StoreResults -->
<g id="node8" class="node">
<title>StoreResults</title>
<path fill="lightblue" stroke="black" d="M466.97,-32.73C466.97,-34.53 442.78,-36 413,-36 383.22,-36 359.03,-34.53 359.03,-32.73 359.03,-32.73 359.03,-3.27 359.03,-3.27 359.03,-1.47 383.22,0 413,0 442.78,0 466.97,-1.47 466.97,-3.27 466.97,-3.27 466.97,-32.73 466.97,-32.73"/>
<path fill="none" stroke="black" d="M466.97,-32.73C466.97,-30.92 442.78,-29.45 413,-29.45 383.22,-29.45 359.03,-30.92 359.03,-32.73"/>
<text text-anchor="middle" x="413" y="-15" font-family="Times,serif" font-size="10.00">Store Model &amp; Results</text>
</g>
<!-- Evaluate&#45;&gt;StoreResults -->
<g id="edge8" class="edge">
<title>Evaluate-&gt;StoreResults</title>
<path fill="none" stroke="black" d="M413,-72.81C413,-65.23 413,-56.1 413,-47.54"/>
<polygon fill="black" stroke="black" points="416.5,-47.54 413,-37.54 409.5,-47.54 416.5,-47.54"/>
</g>
<!-- CompareModels -->
<g id="node9" class="node">
<title>CompareModels</title>
<polygon fill="orange" stroke="black" points="672.22,-426 571.78,-426 571.78,-390 672.22,-390 672.22,-426"/>
<text text-anchor="middle" x="622" y="-405" font-family="Times,serif" font-size="10.00">Compare All Models</text>
</g>
<!-- StoreResults&#45;&gt;CompareModels -->
<g id="edge9" class="edge">
<title>StoreResults-&gt;CompareModels</title>
<path fill="none" stroke="black" d="M467.46,-22.1C500.33,-26.84 540.64,-38.21 566,-65 585.49,-85.59 581,-98.65 581,-127 581,-238 581,-238 581,-238 581,-288.77 598.69,-345.77 610.83,-378.9"/>
<polygon fill="black" stroke="black" points="607.52,-380.04 614.32,-388.16 614.07,-377.57 607.52,-380.04"/>
</g>
</g>
</svg>